<?xml version="1.0" encoding="UTF-8"?>
<svg width="1693px" height="203px" viewBox="0 0 1693 203" version="1.1" xmlns="http://www.w3.org/2000/svg" xmlns:xlink="http://www.w3.org/1999/xlink">
    <!-- Generator: Sketch 60.1 (88133) - https://sketch.com -->
    <title>topography-top</title>
    <desc>Created with Sketch.</desc>
    <g id="Page-1" stroke="none" stroke-width="1" fill="none" fill-rule="evenodd">
        <g id="Artboard-Copy-3" fill-rule="nonzero">
            <g id="background" transform="translate(-662.000000, -472.000000)">
                <g id="topography-top" transform="translate(509.000000, 0.000000)">
                    <path d="M68.8478471,303.953454 C-40.307871,406.826863 -19.6652205,471.323578 130.764385,497.443597 C356.4145,536.623626 892.963627,552.295304 1117.24036,637.287033 C1341.50947,722.277096 2025.33817,656.573714 2142.28909,510.703607 C2259.24002,364.833499 2469.80951,140 1359.45481,140 C619.210734,140 189.01729,194.65004 68.8516515,303.953454 L68.8478471,303.953454 Z" id="Path" fill="#2978DE"></path>
                    <path d="M68.8478471,223.953454 C-40.307871,326.826863 -19.6652205,391.323578 130.764385,417.443597 C356.4145,456.623626 892.963627,472.295304 1117.24036,557.287033 C1341.50947,642.277096 2025.33817,576.573714 2142.28909,430.703607 C2259.24002,284.833499 2469.80951,60 1359.45481,60 C619.210734,60 189.01729,114.65004 68.8516515,223.953454 L68.8478471,223.953454 Z" id="Path-Copy" fill="#3585ED"></path>
                    <path d="M68.8478471,163.953454 C-40.307871,266.826863 -19.6652205,331.323578 130.764385,357.443597 C356.4145,396.623626 892.963627,412.295304 1117.24036,497.287033 C1341.50947,582.277096 2025.33817,516.573714 2142.28909,370.703607 C2259.24002,224.833499 2469.80951,0 1359.45481,0 C619.210734,0 189.01729,54.6500403 68.8516515,163.953454 L68.8478471,163.953454 Z" id="Path-Copy-2" fill="#3D8FF8"></path>
                </g>
            </g>
        </g>
    </g>
</svg>