<?xml version="1.0" encoding="UTF-8"?>
<svg width="1693px" height="455px" viewBox="0 0 1693 455" version="1.1" xmlns="http://www.w3.org/2000/svg" xmlns:xlink="http://www.w3.org/1999/xlink">
    <!-- Generator: Sketch 60.1 (88133) - https://sketch.com -->
    <title>topography-bottom</title>
    <desc>Created with Sketch.</desc>
    <g id="Page-1" stroke="none" stroke-width="1" fill="none" fill-rule="evenodd">
        <g id="Artboard-Copy-3" transform="translate(0.000000, -652.000000)" fill-rule="nonzero">
            <g id="background" transform="translate(-662.000000, -472.000000)">
                <g id="topography-bottom" transform="translate(1494.500000, 1351.500000) scale(-1, -1) translate(-1494.500000, -1351.500000) translate(375.000000, 1124.000000)">
                    <path d="M68.8478471,180.356202 C-40.307871,256.501753 -19.6652205,304.241377 130.764385,323.575074 C356.4145,352.575618 892.963627,364.17559 1117.24036,427.085356 C1341.50947,489.993888 2025.33817,441.361104 2142.28909,333.389959 C2259.24002,225.418814 2469.80951,59 1359.45481,59 C619.210734,59 189.01729,99.4512448 68.8516515,180.356202 L68.8478471,180.356202 Z" id="Path" fill="#2978DE"></path>
                    <path d="M68.8478471,121.356202 C-40.307871,197.501753 -19.6652205,245.241377 130.764385,264.575074 C356.4145,293.575618 892.963627,305.17559 1117.24036,368.085356 C1341.50947,430.993888 2025.33817,382.361104 2142.28909,274.389959 C2259.24002,166.418814 2469.80951,0 1359.45481,0 C619.210734,0 189.01729,40.4512448 68.8516515,121.356202 L68.8478471,121.356202 Z" id="Path-Copy" fill="#3585ED"></path>
                    <path d="M68.8478471,120.049533 C-40.307871,184.08102 -19.6652205,224.225704 130.764385,240.483585 C356.4145,264.870406 892.963627,274.624928 1117.24036,327.526322 C1341.50947,380.426679 2025.33817,339.530929 2142.28909,248.737011 C2259.24002,157.943094 2469.80951,18 1359.45481,18 C619.210734,18 189.01729,52.0158195 68.8516515,120.049533 L68.8478471,120.049533 Z" id="Path-Copy-2" fill="#3D8FF8"></path>
                </g>
            </g>
        </g>
    </g>
</svg>